<?xml version="1.0" encoding="UTF-8"?>
<svg width="167px" height="30px" viewBox="0 0 167 30" version="1.1" xmlns="http://www.w3.org/2000/svg" xmlns:xlink="http://www.w3.org/1999/xlink">
    <!-- Generator: Sketch 54.1 (76490) - https://sketchapp.com -->
    <title>Group</title>
    <desc>Created with Sketch.</desc>
    <g id="Page-1" stroke="none" stroke-width="1" fill="none" fill-rule="evenodd">
        <g id="02" transform="translate(-52.000000, -48.000000)" fill="#FFFFFF" fill-rule="nonzero">
            <g id="Group" transform="translate(52.600000, 48.600000)">
                <polygon id="Path" points="17 0.68 16.32 5.36 6.56 5.36 6.56 12 15.08 12 15.08 16.6 6.56 16.6 6.56 23.68 17 23.68 17 28.4 5.32907052e-15 28.4 5.32907052e-15 0.68"></polygon>
                <path d="M38.84,7.16 L38.84,28.4 L33.36,28.4 L33.08,25.72 C31.52,27.96 29.44,29.08 26.64,29.08 C22.68,29.08 20.72,26.52 20.72,22.4 L20.72,7.16 L27.04,7.16 L27.04,21.6 C27.04,23.76 27.76,24.4 29.08,24.4 C30.4,24.4 31.6,23.52 32.52,21.92 L32.52,7.16 L38.84,7.16 Z" id="Path"></path>
                <path d="M55.32,6.56 C56.12,6.56 56.76,6.64 57.44,6.84 L56.44,12.96 C55.76,12.8 55.24,12.68 54.52,12.68 C51.92,12.68 50.8,14.6 50.12,17.8 L50.12,28.4 L43.8,28.4 L43.8,7.16 L49.32,7.16 L49.84,11.24 C50.8,8.32 52.88,6.56 55.32,6.56 Z" id="Path"></path>
                <path d="M69.74,6.48 C76.9053846,6.48 81.24,10.64 81.24,17.8 C81.24,24.6 76.9053846,29.08 69.74,29.08 C62.6188462,29.08 58.24,24.92 58.24,17.76 C58.24,10.96 62.5746154,6.48 69.74,6.48 Z M69.9,21.6449776 L75.178335,25.4 L73.1840507,19.2269012 L78.4,15.3979378 L71.9943139,15.3979378 L69.8800198,9.4 L67.8856711,15.3979378 L61.4,15.3979378 L66.6095788,19.3223928 L64.7025508,25.4 L69.9,21.6449776 Z" id="Combined-Shape"></path>
                <path d="M101.32,-1.24344979e-14 C105.56,-1.24344979e-14 108.48,1.24 110.92,3.56 L107.88,7.12 C105.96,5.56 104.04,4.8 101.8,4.8 C99.52,4.8 98.08,5.76 98.08,7.52 C98.08,9.28 99.12,10 103.44,11.36 C108.68,13.04 111.68,15.2 111.68,20.32 C111.68,25.48 107.6,29.08 100.68,29.08 C95.88,29.08 92.44,27.32 90.16,25.12 L93.48,21.48 C95.52,23.2 97.72,24.2 100.48,24.2 C103.2,24.2 104.88,22.92 104.88,20.8 C104.88,18.76 103.84,17.84 99.8,16.6 C93.6,14.68 91.32,12.12 91.32,8 C91.32,3.12 95.56,-1.24344979e-14 101.32,-1.24344979e-14 Z" id="Path"></path>
                <path d="M126.36,23.36 L128.48,27.4 C126.88,28.52 124.64,29.08 122.72,29.08 C118.04,29.04 115.76,26.4 115.76,21.4 L115.76,11.56 L112.76,11.56 L112.76,7.16 L115.76,7.16 L115.76,2.56 L122.08,1.84 L122.08,7.16 L126.96,7.16 L126.28,11.56 L122.08,11.56 L122.08,21.32 C122.08,23.36 122.76,24.08 124.08,24.08 C124.8,24.08 125.52,23.88 126.36,23.36 Z" id="Path"></path>
                <path d="M147.48,22.24 C147.48,23.88 147.92,24.48 148.92,24.84 L147.6,28.96 C145.12,28.76 143.48,28 142.48,25.92 C140.96,28.24 138.6,29.08 136.08,29.08 C131.84,29.08 129.16,26.32 129.16,22.44 C129.16,17.8 132.68,15.28 139.12,15.28 L141.28,15.28 L141.28,14.36 C141.28,11.84 140.28,11.08 137.68,11.08 C136.32,11.08 134.24,11.48 132.12,12.2 L130.68,8.04 C133.36,7.04 136.28,6.48 138.68,6.48 C144.84,6.48 147.48,9.08 147.48,14 L147.48,22.24 Z M137.92,24.56 C139.36,24.56 140.52,23.8 141.28,22.56 L141.28,18.76 L139.72,18.76 C136.84,18.76 135.44,19.76 135.44,21.88 C135.44,23.56 136.36,24.56 137.92,24.56 Z" id="Combined-Shape"></path>
                <path d="M164.04,6.56 C164.84,6.56 165.48,6.64 166.16,6.84 L165.16,12.96 C164.48,12.8 163.96,12.68 163.24,12.68 C160.64,12.68 159.52,14.6 158.84,17.8 L158.84,28.4 L152.52,28.4 L152.52,7.16 L158.04,7.16 L158.56,11.24 C159.52,8.32 161.6,6.56 164.04,6.56 Z" id="Path"></path>
            </g>
        </g>
    </g>
</svg>