<?xml version="1.0" encoding="UTF-8"?>
<svg width="446px" height="446px" viewBox="0 0 446 446" version="1.1" xmlns="http://www.w3.org/2000/svg" xmlns:xlink="http://www.w3.org/1999/xlink">
    <!-- Generator: Sketch 54.1 (76490) - https://sketchapp.com -->
    <title>Combined Shape</title>
    <desc>Created with Sketch.</desc>
    <g id="Page-1" stroke="none" stroke-width="1" fill="none" fill-rule="evenodd">
        <g id="07-copy" transform="translate(-497.000000, -236.000000)" fill="#FFCC00" fill-rule="nonzero">
            <path d="M720,236 C843.002105,236 943,335.997895 943,459 C943,582.002105 843.002105,682 720,682 C596.997895,682 497,582.002105 497,459 C497,335.997895 596.997895,236 720,236 Z M602.631579,366.185263 C595.589474,370.88 593.242105,380.269474 598.875789,387.311579 C604.509474,396.231579 620.002105,411.254737 642.536842,411.254737 C665.071579,411.254737 680.564211,396.231579 686.197895,387.311579 C690.423158,380.269474 688.545263,370.88 681.503158,366.185263 C674.461053,361.490526 665.071579,363.837895 660.376842,370.88 C660.376842,370.88 653.334737,380.738947 642.067368,380.738947 C630.8,380.738947 623.757895,371.349474 623.757895,370.88 C619.063158,363.837895 609.673684,361.490526 602.631579,366.185263 Z M758.966316,366.185263 C751.924211,370.88 750.046316,380.269474 755.210526,387.311579 C760.844211,396.231579 776.336842,411.254737 798.871579,411.254737 C821.406316,411.254737 836.898947,396.231579 842.532632,387.311579 C846.757895,380.269474 844.88,371.349474 837.837895,366.654737 C830.795789,361.96 821.406316,363.837895 816.711579,370.88 C816.242105,370.88 809.669474,380.738947 798.402105,380.738947 C787.134737,380.738947 780.092632,371.349474 780.092632,370.88 C775.397895,363.837895 766.008421,361.490526 758.966316,366.185263 Z M611,507 C602.715729,507 596,513.715729 596,522 C596,530.284271 602.715729,537 611,537 L830,537 C838.284271,537 845,530.284271 845,522 C845,513.715729 838.284271,507 830,507 L611,507 Z" id="Combined-Shape"></path>
        </g>
    </g>
</svg>