<?xml version="1.0" encoding="UTF-8"?>
<svg width="446px" height="446px" viewBox="0 0 446 446" version="1.1" xmlns="http://www.w3.org/2000/svg" xmlns:xlink="http://www.w3.org/1999/xlink">
    <!-- Generator: Sketch 54.1 (76490) - https://sketchapp.com -->
    <title>Combined Shape</title>
    <desc>Created with Sketch.</desc>
    <g id="Page-1" stroke="none" stroke-width="1" fill="none" fill-rule="evenodd">
        <g id="06-copy" transform="translate(-497.000000, -236.000000)" fill="#FFCC00" fill-rule="nonzero">
            <path d="M720,236 C843.002105,236 943,335.997895 943,459 C943,582.002105 843.002105,682 720,682 C596.997895,682 497,582.002105 497,459 C497,335.997895 596.997895,236 720,236 Z M843.002105,486.229474 C855.208421,486.229474 867.884211,479.187368 867.884211,461.347368 C867.884211,446.793684 851.452632,423.789474 845.349474,415.338947 C844.410526,413.930526 842.063158,413.930526 840.654737,415.338947 C834.551579,423.789474 818.12,446.793684 818.12,461.347368 C818.12,479.187368 830.795789,486.229474 843.002105,486.229474 Z M758.966316,356.185263 C751.924211,360.88 750.046316,370.269474 755.210526,377.311579 C760.844211,386.231579 776.336842,401.254737 798.871579,401.254737 C821.406316,401.254737 836.898947,386.231579 842.532632,377.311579 C846.757895,370.269474 844.88,361.349474 837.837895,356.654737 C830.795789,351.96 821.406316,353.837895 816.711579,360.88 C816.242105,360.88 809.669474,370.738947 798.402105,370.738947 C787.134737,370.738947 780.092632,361.349474 780.092632,360.88 C775.397895,353.837895 766.008421,351.490526 758.966316,356.185263 Z M602.631579,356.185263 C595.589474,360.88 593.242105,370.269474 598.875789,377.311579 C604.509474,386.231579 620.002105,401.254737 642.536842,401.254737 C665.071579,401.254737 680.564211,386.231579 686.197895,377.311579 C690.423158,370.269474 688.545263,360.88 681.503158,356.185263 C674.461053,351.490526 665.071579,353.837895 660.376842,360.88 C660.376842,360.88 653.334737,370.738947 642.067368,370.738947 C630.8,370.738947 623.757895,361.349474 623.757895,360.88 C619.063158,353.837895 609.673684,351.490526 602.631579,356.185263 Z M832.204211,564.631579 C838.776842,559.467368 839.715789,550.077895 834.082105,543.035789 C832.673684,541.157895 792.768421,492.802105 719.530526,492.802105 C646.292632,492.802105 606.856842,541.157895 604.978947,543.035789 C599.814737,549.608421 600.753684,559.467368 607.326316,564.631579 C613.898947,569.795789 623.757895,568.856842 628.922105,562.284211 C629.391579,561.814737 661.315789,523.317895 720,523.317895 C778.214737,523.317895 809.669474,560.875789 811.077895,562.284211 C813.894737,566.04 818.589474,567.917895 822.814737,567.917895 C826.101053,567.917895 829.387368,566.978947 832.204211,564.631579 Z" id="Combined-Shape"></path>
        </g>
    </g>
</svg>