<?xml version="1.0" encoding="UTF-8"?>
<svg width="222px" height="209px" viewBox="0 0 222 209" version="1.1" xmlns="http://www.w3.org/2000/svg" xmlns:xlink="http://www.w3.org/1999/xlink">
    <!-- Generator: Sketch 54.1 (76490) - https://sketchapp.com -->
    <title>Star cooloops</title>
    <g id="Page-1" stroke="none" stroke-width="1" fill="none" fill-rule="evenodd">
        <g id="03" transform="translate(-114.000000, -474.000000)">
            <g id="Group" transform="translate(119.000000, 479.000000)">
                <polygon id="Star-Copy-4" fill="#FFCC00" points="106 128.937416 75.0335521 151.438847 86.3956416 115.019662 55.3569251 91.5029306 93.9986109 91.5029306 105.880958 55.561153 118.477941 91.5029306 156.643075 91.5029306 125.566403 114.447442 137.448367 151.438847"></polygon>
                <polygon id="Star-Copy-4" stroke="#FFCC00" stroke-width="3" opacity="0.440127418" points="106 140.061976 57.1082372 175.5 75.0474141 118.142582 26.041549 81.1055376 87.051457 81.1055376 105.812049 24.5 125.700952 81.1055376 185.958451 81.1055376 136.89266 117.24138 155.652646 175.5"></polygon>
                <polygon id="Star-Copy-4" stroke="#FFCC00" stroke-width="3" opacity="0.284737723" points="106 153.06222 41.1847517 200 64.9665124 124.02991 0 74.974222 80.8801341 74.974222 105.750836 0 132.117326 74.974222 212 74.974222 146.954044 122.836266 171.823943 200"></polygon>
            </g>
        </g>
    </g>
</svg>