<?xml version="1.0" encoding="UTF-8"?>
<svg width="2128px" height="2007px" viewBox="0 0 2128 2007" version="1.1" xmlns="http://www.w3.org/2000/svg" xmlns:xlink="http://www.w3.org/1999/xlink">
    <!-- Generator: Sketch 54.1 (76490) - https://sketchapp.com -->
    <title>Group</title>
    <desc>Created with Sketch.</desc>
    <g id="Page-1" stroke="none" stroke-width="1" fill="none" fill-rule="evenodd">
        <g id="01-copy" transform="translate(-239.000000, -96.000000)">
            <g id="Group" transform="translate(244.000000, 101.000000)">
                <polygon id="Star-Copy-4" fill="#FFCC00" points="1059 1289.16803 749.598909 1514 863.123163 1150.10327 553 915.126523 939.088188 915.126523 1057.81059 556 1183.67327 915.126523 1565 915.126523 1254.49761 1144.38571 1373.21618 1514"></polygon>
                <polygon id="Star-Copy-4" stroke="#FFCC00" stroke-width="3" opacity="0.440127418" points="1059 1399.61976 570.439779 1754 749.700409 1180.42582 260 810.055376 869.653087 810.055376 1057.12186 244 1255.8655 810.055376 1858 810.055376 1367.70076 1171.4138 1555.16349 1754"></polygon>
                <polygon id="Star-Copy-4" stroke="#FFCC00" stroke-width="3" opacity="0.284737723" points="1059 1529.09158 411.458982 1998 649.052232 1239.05881 0 748.992478 808.038321 748.992478 1056.51071 0 1319.92687 748.992478 2118 748.992478 1468.15408 1227.13429 1716.61845 1998"></polygon>
                <g id="Group-2" transform="translate(908.000000, 983.000000)">
                    <path d="M69.8124148,0.493974843 L67.2999182,17.6583899 L31.2382024,17.6583899 L31.2382024,42.0113208 L62.7183068,42.0113208 L62.7183068,58.882327 L31.2382024,58.882327 L31.2382024,84.8490063 L69.8124148,84.8490063 L69.8124148,102.160126 L7,102.160126 L7,0.493974843 L69.8124148,0.493974843 Z M150.507894,24.2600881 L150.507894,102.160126 L130.260127,102.160126 L129.225569,92.3309308 C123.461607,100.546377 115.776323,104.654101 105.430749,104.654101 C90.799151,104.654101 83.5572491,95.2650189 83.5572491,80.1544654 L83.5572491,24.2600881 L106.908688,24.2600881 L106.908688,77.2203774 C106.908688,85.1424151 109.568978,87.4896855 114.446178,87.4896855 C119.323377,87.4896855 123.757195,84.2621887 127.156455,78.3940126 L127.156455,24.2600881 L150.507894,24.2600881 Z M211.398987,22.059522 C214.354866,22.059522 216.719568,22.3529308 219.232065,23.0864528 L215.537217,45.5322264 C213.02472,44.9454088 211.1034,44.5052956 208.443109,44.5052956 C198.836504,44.5052956 194.698275,51.5471069 192.185778,63.2834591 L192.185778,102.160126 L168.834339,102.160126 L168.834339,24.2600881 L189.2299,24.2600881 L191.151221,39.2239371 C194.698275,28.5145157 202.383558,22.059522 211.398987,22.059522 Z M264.678694,21.7661132 C291.153701,21.7661132 307.169446,37.0233711 307.169446,63.2834591 C307.169446,88.2232075 291.153701,104.654101 264.678694,104.654101 C238.367114,104.654101 222.187943,89.3968428 222.187943,63.1367547 C222.187943,38.1970063 238.203688,21.7661132 264.678694,21.7661132 Z M44.2074148,120 C60.9546267,120 72.488084,124.903714 82.1256304,134.078404 L70.1181955,148.156809 C62.5345524,141.98762 54.9509093,138.982118 46.1033256,138.982118 C37.0977494,138.982118 31.4100171,142.778542 31.4100171,149.738652 C31.4100171,156.698762 35.5178238,159.54608 52.5810208,164.924347 C73.2780468,171.568088 85.1274892,180.110041 85.1274892,200.357634 C85.1274892,220.763411 69.0122475,235 41.6795338,235 C22.720426,235 9.13306539,228.03989 0.12748918,219.339752 L13.2408721,204.944979 C21.2984929,211.746905 29.988084,215.701513 40.889571,215.701513 C51.6330654,215.701513 58.2687531,210.639615 58.2687531,202.255846 C58.2687531,194.188446 54.1609464,190.550206 38.2036974,185.646492 C13.7148498,178.053645 4.70927357,167.929849 4.70927357,151.636864 C4.70927357,132.338377 21.4564855,120 44.2074148,120 Z M143.631306,212.321586 L152.127489,228.339207 C145.715275,232.779736 136.738176,235 129.04352,235 C110.287795,234.84141 101.15039,224.374449 101.15039,204.550661 L101.15039,165.537445 L89.1274892,165.537445 L89.1274892,148.092511 L101.15039,148.092511 L101.15039,129.854626 L126.478634,127 L126.478634,148.092511 L146.035886,148.092511 L143.310695,165.537445 L126.478634,165.537445 L126.478634,204.23348 C126.478634,212.321586 129.203825,215.176211 134.493901,215.176211 C137.379398,215.176211 140.264894,214.38326 143.631306,212.321586 Z M228.516153,208.063717 C228.516153,214.522124 230.230728,216.884956 234.127489,218.302655 L228.983764,234.527434 C219.319797,233.739823 212.929109,230.746903 209.032347,222.555752 C203.109271,231.692035 193.912914,235 184.093076,235 C167.570809,235 157.127489,224.130973 157.127489,208.851327 C157.127489,190.578761 170.844088,180.654867 195.93923,180.654867 L204.356234,180.654867 L204.356234,177.031858 C204.356234,167.107965 200.459473,164.115044 190.327894,164.115044 C185.028299,164.115044 176.923036,165.690265 168.661902,168.525664 L163.050566,152.143363 C173.493886,148.20531 184.872428,146 194.224655,146 C218.228704,146 228.516153,156.238938 228.516153,175.614159 L228.516153,208.063717 Z M190.894612,217 C196.565845,217 201.134338,213.986207 204.127489,209.068966 L204.127489,194 L197.983654,194 C186.641188,194 181.127489,197.965517 181.127489,206.372414 C181.127489,213.034483 184.750777,217 190.894612,217 Z M292.734527,146 C295.901683,146 298.435407,146.315018 301.127489,147.102564 L297.168545,171.201465 C294.476463,170.571429 292.417812,170.098901 289.567372,170.098901 C279.274117,170.098901 274.840099,177.659341 272.148017,190.260073 L272.148017,232 L247.127489,232 L247.127489,148.362637 L268.980862,148.362637 L271.039513,164.428571 C274.840099,152.930403 283.074703,146 292.734527,146 Z" id="EuroStar" fill="#FFFFFF" fill-rule="nonzero"></path>
                    <polygon id="Star-Copy-5" fill="#003399" points="265.26987 77.3853377 246.066086 91.1572956 253.112264 68.8670024 233.863663 54.4736315 257.827231 54.4736315 265.196046 32.4755346 273.008041 54.4736315 296.676078 54.4736315 277.403938 68.5167765 284.772515 91.1572956"></polygon>
                </g>
            </g>
        </g>
    </g>
</svg>